<svg xmlns="http://www.w3.org/2000/svg" width="104.9" height="32.7" viewBox="0 0 104.9 32.7"><style type="text/css">.st0{display:none;opacity:0.3;fill:#1B4093;} .st1{fill:#FFFFFF;} .st2{opacity:0.7;fill:#FFFFFF;} .st3{fill:none;stroke:#000000;stroke-width:2;stroke-linecap:round;stroke-linejoin:round;stroke-miterlimit:10;} .st4{fill:#FFFFFF;stroke:#000000;stroke-miterlimit:10;} .st5{opacity:0.7;} .st6{fill:#1B4093;} .st7{fill:#163477;} .st8{fill:#A5A4A5;}</style><path class="st0" d="M-270.9-240.3h1906v1362h-1906z"/><path class="st1" d="M101.1 25.8v-7.6h3.2v-3.6h-3.2v-6.6h3.5v-3.9h-8.1v25.4h8.4v-3.8h-3.8zm-29.4-21.6h-4.3v25.4h7.6v-3.9h-3.2v-21.5zm-62.1 11.9l-5.2-13.8-4.4 2.6v24.7h5v-12.3l9.5 15.4v-32.7l-4.9 1.6v14.5zm73 4.6h1v3.3c0 1.1-.1 1.8-.2 2.2-.2.5-.5.7-1 .7s-.8-.2-.9-.7c-.1-.3-.2-1-.2-2.1v-14c0-1.6.1-2 .2-2.2.2-.4.5-.6.9-.6.5 0 .8.2 1 .7.1.4.2 1.2.2 2.5v1.6c.5-.1 4.2-.8 4.6-.9 0-1.7-.2-2.8-.4-3.7-.3-.9-.9-1.7-1.9-2.4-.9-.7-2.2-1-3.6-1-1.5 0-2.7.4-3.6 1.2-.9.8-1.5 1.6-1.7 2.5-.2.9-.3 2.5-.3 4.6v9.9c0 1.5 0 2.7.1 3.4.1.7.3 1.4.7 2.1.4.7.9 1.2 1.6 1.7.7.4 1.5.7 2.3.7.7 0 1.3-.2 1.7-.5.5-.3.9-.8 1.2-1.5l.2-.3s2.8 3.1 3.5 3.9v-15.2c-.6.1-5.1 1.1-5.5 1.2v2.9zm-47.1-6.9c-.9-.7-1.4-1.2-1.6-1.7-.2-.5-.3-1.1-.3-2 0-.7.1-1.2.3-1.6.3-.5.7-.7 1-.7.4 0 .7.2.9.5.1.2.2.6.2 1.8v1.5l4.2-1.1c0-1.7-.2-3-.4-3.7-.3-.8-.9-1.4-1.8-2-.9-.5-2-.8-3.3-.8-1.2 0-2.2.2-3 .7-.8.5-1.4 1.1-1.8 2-.4.9-.6 2.3-.6 4.2 0 1.3.1 2.4.4 3.3.3.8.6 1.5 1 2s1.3 1.3 2.5 2.4c1.3 1.1 2.1 1.9 2.5 2.4.4.5.5 1.5.5 3.1 0 .7-.1 1.3-.3 1.7-.3.6-.7.7-1 .7-.6 0-.9-.3-1-.6-.1-.2-.2-.6-.2-2v-2.7l-4.2 1.5c0 1.8.2 3.1.4 4.1.3 1 .9 1.8 1.8 2.4.9.6 2.1 1 3.4 1 1.2 0 2.3-.3 3.2-.8.9-.5 1.5-1.2 1.8-2 .3-.8.5-2.2.5-3.9 0-2.5-.3-4.3-.9-5.3-.5-1.2-1.9-2.7-4.2-4.4zm54.6 15.8h4.5v-25.5h-4.5v25.5zm-33.6-25.4l-5 25.4h4.7l.8-4.8h2.9l.7 4.8h4.5l-4.4-25.4h-4.2zm.9 16.9l1.2-10.6 1.2 10.6h-2.4zm-30.6-14.7c-.5-.8-1.1-1.3-1.9-1.7-.8-.4-1.7-.6-2.7-.6-1.1 0-2 .2-2.8.6-.8.4-1.4 1-1.9 1.7-.5.8-.8 1.6-.9 2.5-.1.9-.1 2.5-.1 4.7v6.9c0 2.3 0 3.8.1 4.7.1.9.4 1.7.9 2.5s1.1 1.3 1.9 1.7c.8.4 1.7.6 2.7.6 1.1 0 2-.2 2.8-.6.8-.4 1.4-1 1.9-1.7.5-.8.8-1.6.8-2.5.1-.9.1-2.5.1-4.7v-6.9c0-2.3 0-3.8-.1-4.7 0-.9-.3-1.8-.8-2.5zm-3.5 17.3c0 1.4-.1 2.2-.2 2.6-.1.4-.5.5-.9.5-.5 0-.8-.2-.9-.5-.1-.3-.2-1.1-.2-2.5v-14c0-1.2.1-1.9.3-2.1.2-.2.5-.4.9-.4s.7.2.9.5c.1.3.2 1 .2 2.1v13.8zm28.9-19.4h-10.5v3.8h3v21.5h4.6v-21.5h3v-3.8z"/></svg>